<svg id="Capa_1" enable-background="new 0 0 512 512" height="512" viewBox="0 0 512 512" width="512" xmlns="http://www.w3.org/2000/svg"><g><g><path d="m160.542 477.288c0 9.572 7.784 17.356 17.356 17.356s17.356-7.784 17.356-17.356v-104.135h-34.712z"/><path d="m264.678 371.556v105.732c0 9.572 7.784 17.356 17.356 17.356s17.356-7.784 17.356-17.356v-121.491h-18.953c-2.621 7.35-8.409 13.138-15.759 15.759z"/><path d="m175.998 217.166c1.241-1.857 1.9-4.027 1.9-6.265 0-6.239-5.068-11.307-11.307-11.307-15.594 0-29.757 9.806-35.224 24.411l-8.678 23.135c-4.903 13.078-17.59 21.877-31.57 21.877v-17.356c6.786 0 12.939-4.27 15.325-10.613l8.678-23.135c2.36-6.3 5.832-11.984 10.127-16.87-1.05-8.235-3.454-16.15-7.177-23.595l-3.133-6.274 12.583-10.066c20.983-16.801 33.02-41.845 33.02-68.721 0-7.88-6.404-14.284-14.284-14.284-3.567 0-6.734 2.143-8.062 5.458l-1.085 2.716c-8.34 20.844-20.619 39.467-36.5 55.348l-25.808 25.808c-6.595 6.595-10.96 15.317-12.271 24.55l-5.311 37.211c-6.344 44.423-24.602 86.207-52.884 121.032v149.261c42.027-44.44 75.09-97.896 95.987-155.336l1.18-3.254 3.089-1.545c19.187-9.589 32.456-28.004 35.493-49.239l.677-4.773c1.831-12.774 6.569-25.175 13.711-35.883z"/><path d="m212.61 494.644c0 9.572 7.784 17.356 17.356 17.356s17.356-7.784 17.356-17.356v-121.491h-34.712z"/><path d="m321.371 371.443-2.031-14.241c-.069-.477-.208-.937-.286-1.414h-2.308v104.136c0 9.572 7.784 17.356 17.356 17.356s17.356-7.784 17.356-17.356v-44.362c-16.107-9.216-27.44-25.557-30.087-44.119z"/><path d="m446.073 360.7-33.253-104.5c-4.938-15.534-16.141-28.629-30.72-35.918l-13.286-6.647v91.431l2.022 5.398c2.386 6.352 8.548 10.622 15.334 10.622v17.356c-13.972 0-26.667-8.791-31.588-21.877l-8.695-23.161c-5.467-14.588-19.612-24.385-35.189-24.385-6.257 0-11.307 5.068-11.307 11.299 0 2.239.66 4.408 1.9 6.283l21.521 32.291c7.142 10.7 11.88 23.109 13.711 35.866l2.031 14.241c2.126 14.891 12.036 27.822 25.852 33.749l36.942 15.829 42.478 93.423h63.835v-48.51c-28.108-28.915-49.36-64.382-61.588-102.79z"/><path d="m286.85 296.222c-3.159-4.729-4.816-10.231-4.816-15.898 0-15.811 12.835-28.663 28.62-28.663 15.846 0 30.546 7.02 40.804 18.389v-70.456c0-28.715-23.352-52.068-52.068-52.068v-17.356c12.652 0 24.489 3.454 34.712 9.39v-139.56h-173.56v64.312c10.249 5.241 17.356 15.794 17.356 28.073 0 32.178-14.405 62.16-39.537 82.258l-1.857 1.475c1.684 4.139 3.055 8.366 4.105 12.687 7.845-4.217 16.748-6.569 25.982-6.569 15.811 0 28.663 12.852 28.663 28.663 0 5.667-1.658 11.169-4.816 15.898l-21.521 32.299c-5.71 8.565-9.511 18.484-10.969 28.698l-.677 4.773c-1.857 13.017-6.777 25.175-14.084 35.649v18.901c0 4.782 3.888 8.678 8.678 8.678h104.135c4.79 0 8.678-3.896 8.678-8.678 0-14.353-11.681-26.034-26.034-26.034h-50.922l8.99-13.494c10.396-15.603 15.898-33.757 15.898-52.502v-3.428h17.356v3.428c0 16.974-3.801 33.532-11.099 48.64h19.777c20.949 0 38.478 14.935 42.513 34.712h32.594c-1.553-3.436-3.289-6.795-5.38-9.928zm-72.773-70.595h-1.467v-17.356h1.467c28.177 0 54.697-15.013 69.198-39.181l14.883 8.93c-17.625 29.366-49.838 47.607-84.081 47.607z"/></g></g></svg>