<svg height="512" viewBox="0 0 48 48" width="512" xmlns="http://www.w3.org/2000/svg"><g id="pharynx"><path d="m28 25.24c-1.56-6.19-3.7-10.55-9.68-8.3a91.8 91.8 0 0 0 -11.27 5.06c-.27 1.27-.64 2.44 0 3 2.18 2 1 4.25 2 6 2.55 4.64 4.59.68 10 2 4.95 1.21 2 14 2 14h6a75 75 0 0 1 -1-10c-.05-3.11 2.66-9.08 1.95-11.76z"/><path d="m31.29 13.71c-2.09-2.11-4.89-3.92-6-5a8.16 8.16 0 0 0 -8.84-.82c-5.65 2.84-4.21 5.64-9.35 11.35.45 1-1.34.29 10.55-4.18a8.07 8.07 0 0 1 6.77 0c3.58 1.94 4.82 6.79 5.58 9.7.86 3.42-2 9.39-2 12.24a79.82 79.82 0 0 0 1 10h9c-.77-2.31-5-15.26-5-20 0-4.33 0-11.59-1.71-13.29z"/><path d="m42 27c-1-7 1-26 1-26h-35a13.38 13.38 0 0 0 1 5c1 2-6 7-6 10 0 2 1.34 1.78 2.53 2 5.22-5.91 3.66-8.72 10-11.89a10.15 10.15 0 0 1 11.18 1.18 19 19 0 0 0 1.8 1.46c5.36 4.12 6.49 3.93 6.49 18.25 0 4.11 3.81 16.35 5.06 20h4.94s-2.14-14-3-20z"/></g></svg>