<svg id="Layer_3" height="512" viewBox="0 0 64 64" width="512" xmlns="http://www.w3.org/2000/svg" data-name="Layer 3"><path d="m12.2 30.4.8.6a5.133 5.133 0 0 0 6 0l.8-.6a7.157 7.157 0 0 1 6.2-1.078v-6.322h-22a1 1 0 0 0 -1 1v7l.8-.6a7.187 7.187 0 0 1 8.4 0z"/><path d="m3 57h58v4h-58z"/><path d="m31.267 42.915a3.008 3.008 0 0 0 3.733-2.915 2.958 2.958 0 0 0 -1.214-2.391 1.878 1.878 0 0 1 -.786-1.509v-10.289a59.857 59.857 0 0 1 1.159-11.706 17.373 17.373 0 0 1 5.673-9.72 14.347 14.347 0 0 0 -7.772 9.5 35.492 35.492 0 0 0 -1.06 8.607v13.584a1.928 1.928 0 0 1 -.8 1.543 2.988 2.988 0 0 0 1.066 5.3z"/><path d="m25.054 40.888a7.019 7.019 0 0 0 6.136 6.066 6.933 6.933 0 0 0 5.475-1.734 6.993 6.993 0 0 0 .6-9.83 4.863 4.863 0 0 1 -1.265-3.183v-9.207h-.93q-.07 1.406-.07 2.811v10.209a4.989 4.989 0 0 1 -3.006 8.98 5.192 5.192 0 0 1 -1.181-.137 4.987 4.987 0 0 1 -1.813-8.843v-13.02h-1v9.264a4.693 4.693 0 0 1 -1.235 3.095 6.947 6.947 0 0 0 -1.711 5.529z"/><path d="m53 32-.8.6a7 7 0 0 1 -8.4 0l-.8-.6a5.113 5.113 0 0 0 -5-.57v.776a2.862 2.862 0 0 0 .765 1.862 9 9 0 0 1 -6.786 14.932 9.3 9.3 0 0 1 -1.011-.056 9 9 0 0 1 -5.7-14.911 2.7 2.7 0 0 0 .732-1.769v-.833a5.117 5.117 0 0 0 -5 .569l-.8.6a7 7 0 0 1 -8.4 0l-.8-.6a5.133 5.133 0 0 0 -6 0l-2 1.5v21.5h58v-21.5l-2-1.5a5.137 5.137 0 0 0 -6 0zm-45 7a2 2 0 1 1 2-2 2 2 0 0 1 -2 2zm8 14a2 2 0 1 1 2-2 2 2 0 0 1 -2 2zm3-10a2 2 0 1 1 2-2 2 2 0 0 1 -2 2zm26 7a2 2 0 1 1 2-2 2 2 0 0 1 -2 2zm9-7a2 2 0 1 1 2-2 2 2 0 0 1 -2 2z"/><path d="m60 23h-22v6.323a7.161 7.161 0 0 1 6.2 1.077l.8.6a5.133 5.133 0 0 0 6 0l.8-.6a7.191 7.191 0 0 1 8.4 0l.8.6v-7a1 1 0 0 0 -1-1z"/></svg>