<svg id="Capa_1" enable-background="new 0 0 512 512" height="512" viewBox="0 0 512 512" width="512" xmlns="http://www.w3.org/2000/svg"><g><path d="m229.15 479.64c-13.01 0-25.15-3.64-35.34-9.91v9.3c0 18.18 15.86 32.97 35.34 32.97h53.7c19.48 0 35.34-14.79 35.34-32.97v-9.3c-10.19 6.27-22.33 9.91-35.34 9.91z"/><path d="m229.19 422.5c-13.03 0-25.17-3.83-35.38-10.42v5.34c0 17.77 15.86 32.22 35.34 32.22h53.7c19.48 0 35.34-14.45 35.34-32.22v-5.34c-10.21 6.59-22.35 10.42-35.38 10.42z"/><path d="m282.81 392.5c2.76 0 5.46-.32 8.04-.92-6.19-11.39-12.8-20.64-19.44-27.08-11.703-11.357-19.107-11.416-30.91.08-6.59 6.42-13.17 15.65-19.35 27 2.58.6 5.28.92 8.04.92z"/><path d="m227.4 178.94c-6.35 0-12.49-.88-18.3-2.52 8.474 9.728 24.95 24.33 38.122 24.33h17.605c13.036 0 29.439-14.481 37.953-24.3-5.77 1.62-11.87 2.49-18.17 2.49z"/><path d="m509.35 209.34c-3.24-23.02-7.98-49.7-18.53-73.12-18.65-41.37-46.67-50.06-66.89-50.06-28.92 0-53.59 14.41-61.4 35.85-12.341 33.939-22.261 69.313-63.69 97.58-22.326 15.753-62.088 16.558-85.75-.04-41.27-28.17-51.24-63.45-63.62-97.54-7.81-21.44-32.48-35.85-61.4-35.85-20.22 0-48.24 8.69-66.89 50.06-10.55 23.42-15.29 50.1-18.53 73.11-7.38 52.3.62 102.87 24.46 154.59 19.45 42.15 42.67 81.92 91.52 81.92 28.64 0 53.24-14.26 61.21-35.48 7.72-20.55 20.88-48.91 39.73-67.27 23.447-22.833 49.256-22.916 72.74-.11 18.93 18.37 32.12 46.78 39.85 67.38 7.97 21.22 32.57 35.48 61.21 35.48 48.116 0 71.285-38.047 91.52-81.92 23.84-51.72 31.84-102.29 24.46-154.58zm-440.68-61.63c9.32-9.28 23.29-12.26 35.6-7.6 7.75 2.94 11.65 11.6 8.71 19.35-2.94 7.74-11.6 11.64-19.34 8.71-2.819-1.071-5.656 1.59-4.58 4.45 3.745 9.825-3.537 20.35-14.01 20.35-6.04 0-11.73-3.68-14.02-9.66-4.7-12.31-1.7-26.29 7.64-35.6zm-4.07 124.04c-9.35-9.31-12.34-23.28-7.64-35.6 2.95-7.74 11.62-11.62 19.36-8.66 7.74 2.95 11.62 11.62 8.66 19.36-1.07 2.815 1.743 5.528 4.58 4.45 7.75-2.94 16.41.96 19.34 8.71 2.94 7.74-.96 16.41-8.71 19.34-12.428 4.701-26.341 1.62-35.59-7.6zm77.91 81.86c-2.93 7.75-11.59 11.65-19.34 8.71-2.837-1.079-5.649 1.636-4.58 4.45 3.766 9.848-3.549 20.35-14.01 20.35-6.04 0-11.73-3.67-14.01-9.65-4.7-12.32-1.71-26.29 7.64-35.6 9.31-9.28 23.28-12.27 35.59-7.6 7.75 2.94 11.65 11.6 8.71 19.34zm35.71-59.4c-9.35 9.306-23.322 12.244-35.6 7.6-7.75-2.94-11.65-11.6-8.71-19.35 2.93-7.74 11.59-11.64 19.34-8.71 2.83 1.075 5.651-1.603 4.58-4.45-2.96-7.74.92-16.41 8.66-19.36s16.41.93 19.36 8.66c4.71 12.32 1.71 26.3-7.63 35.61zm185.57-6.61c-7.621 3.429-16.456-.016-19.83-7.52-1.24-2.739-5.214-2.753-6.46 0-3.4 7.56-12.29 10.92-19.84 7.52s-10.91-12.28-7.51-19.84c5.4-11.99 17.41-19.74 30.58-19.74s25.18 7.75 30.58 19.74c3.4 7.56.04 16.44-7.52 19.84zm27.2-105.67c2.94-7.74 11.59-11.64 19.34-8.71 1 .38 2.59.4 3.79-.79 1.17-1.16 1.17-2.65.79-3.65-2.95-7.74.92-16.41 8.66-19.37 7.74-2.95 16.41.93 19.37 8.67 4.7 12.31 1.7 26.29-7.64 35.6-9.359 9.316-23.331 12.24-35.6 7.6-7.75-2.94-11.65-11.6-8.71-19.35zm36.68 175.17c-2.94 7.75-11.59 11.65-19.34 8.71-2.851-1.055-5.652 1.63-4.58 4.45 3.758 9.826-3.529 20.36-14.01 20.36-6.04 0-11.73-3.68-14.02-9.66-4.7-12.31-1.7-26.29 7.64-35.6 9.32-9.28 23.29-12.26 35.6-7.6 7.75 2.94 11.65 11.6 8.71 19.34zm19.83-64.15c-6.39 6.37-14.98 9.78-23.72 9.78-3.99 0-8.02-.71-11.88-2.18-7.74-2.93-11.64-11.59-8.71-19.34 2.94-7.75 11.6-11.65 19.35-8.71 2.83 1.086 5.663-1.648 4.57-4.45-2.95-7.74.93-16.41 8.67-19.36 7.74-2.96 16.41.92 19.36 8.66 4.7 12.32 1.7 26.29-7.64 35.6z"/><path d="m320.57 113.67c-4.3 2.56-8.99 4.67-14 6.25-8.952 2.838-18.346 3.796-27.25 3.09h-.08c-15.122-1.217-31.462-1.211-46.45 0h-.06c-8.986.72-18.442-.281-27.3-3.08-5.02-1.59-9.71-3.69-14-6.24 0 21.076 17.125 35.25 35.97 35.25h57.21c18.817 0 35.96-14.122 35.96-35.27z"/><path d="m180.276 38.054c11.13 16.249 12.06 17.484 12.853 29.657.682 10.462 9.061 19.73 21.338 23.608 5.014 1.591 10.523 2.203 15.944 1.782 16.713-1.333 34.347-1.34 51.206 0 5.679.434 11.109-.263 15.917-1.782 12.277-3.877 20.656-13.146 21.347-23.615.771-12.115 1.686-13.36 12.844-29.649 1.763-2.577 3.756-5.476 5.997-8.795 8.78-12.976-2.538-29.26-21.162-29.26h-25.749c-9.017 0-17.228 4.046-21.436 10.592l-7.449 11.647c-2.706 4.227-9.14 4.239-11.843.008l-7.476-11.678c-4.19-6.516-12.392-10.569-21.418-10.569h-25.749c-18.72 0-29.896 16.351-21.161 29.259 2.241 3.319 4.225 6.218 5.997 8.795z"/></g></svg>