<svg xmlns="http://www.w3.org/2000/svg" xml:space="preserve" fill-rule="evenodd" clip-rule="evenodd" image-rendering="optimizeQuality" shape-rendering="geometricPrecision" text-rendering="geometricPrecision" viewBox="0 0 956 1328.34"><path d="m117.09 541.63 27.56 588.62c1.88 78.63 18.17 178.87-49.49 195.16-95.86 23.18-100.25-96.48-88.03-176.05l24.75-563.87 85.21-43.86zM141.83 0S119.9 292.27 119.9 486.81l-88.02 41.35V374.03C-38.92 217.09 12.77 33.83 141.83 0zm144.42 1191.33c0 51.07 41.35 92.42 92.41 92.42 51.06 0 92.41-41.35 92.41-92.42 0-51.06-41.35-92.41-92.41-92.41-51.06.32-92.41 41.67-92.41 92.41zm383.74-889.35 4.07 58.58 3.14 43.86-36.03 25.37-85.2 59.52-44.49 652.84h55.14v37.59h-54.2c.31 3.76.63 7.52.63 11.28 0 74.24-60.15 134.08-134.08 134.08-74.24 0-134.07-60.15-134.07-134.08s60.14-134.07 134.07-134.07c38.53 0 73.31 16.28 97.74 42.28l39.47-582.04 3.13-48.24 4.39-64.22 3.13-48.24 39.79-27.88 64.21-45.11-19.1-280.05L649.32.94l17.54 257.19 3.13 43.85zm-32.26 83.96-4.08-58.58-70.48 49.49-4.39 64.22 78.95-55.13zM588.54 3.45l-18.79 277.86-39.79 27.88L550.95.94l37.59 2.51zm325.48 1187.88c0-51.06-41.35-92.41-92.41-92.41-51.06 0-92.41 41.35-92.41 92.41 0 51.07 41.35 92.42 92.41 92.42 51.06 0 92.41-41.35 92.41-92.42zm41.98 0c0 74.25-60.15 134.08-134.08 134.08s-134.07-60.15-134.07-134.08c0-3.75.31-7.51.62-11.27h-54.5v-37.59h55.13l-45.42-668.51 36.02-25.37 44.17 650.96c24.44-26 59.21-42.29 97.74-42.29 74.24 0 134.39 60.15 134.39 134.07z"/></svg>