<svg id="Layer_1" enable-background="new 0 0 480.018 480.018" height="512" viewBox="0 0 480.018 480.018" width="512" xmlns="http://www.w3.org/2000/svg"><g><path d="m376.79 188.454c-9.59 33.85-28.51 68.98-54.88 102 30.209 34.913 4.9 115.522-20.15 153.76-4.96 7.58-12.34 10.77-19.52 10.77-16.336 0-29.932-16.029-22.44-33.5 26.72-62.25 31.24-81.39 14.81-107.43-9.42-14.92-7.22-34.65 5.22-46.91 24.8-24.46 38.62-53.71 43.5-92.05 1.513-11.981-9.264-21.74-21.1-19.36-41.36 8.25-83.33 8.23-124.73-.06-11.757-2.373-22.311 7.649-20.77 19.62 6.49 50.29 27.88 76.47 43.4 91.79 12.49 12.33 14.74 32.03 5.35 46.86-16.51 26.09-11.99 45.25 14.74 107.54 5.09 11.87.69 24.43-10.71 30.55-9.61 5.16-23.43 4.13-31.25-7.82-25.026-38.203-50.373-118.831-20.15-153.76-26.37-33.02-45.29-68.15-54.88-102-10.49-37.04-9.33-70.92 3.37-97.98 14.01-29.86 48.52-65.44 133.41-65.44s119.4 35.58 133.41 65.44c12.7 27.06 13.86 60.94 3.37 97.98z"/><path d="m307.45 173.074c-4.39 34.6-16.74 60.87-38.86 82.67-17.75 17.51-20.91 45.62-7.51 66.85 11.27 17.87 11.18 29.3-15.98 92.58-2.564 5.972-3.767 12.453-3.298 18.978.055.769-.515 1.935-1.888 1.892-.997-.031-1.772-.894-1.701-1.889.47-6.51-.72-13.027-3.294-18.98-27.17-63.32-27.25-74.76-15.92-92.67 13.39-21.14 10.18-49.24-7.63-66.81-15.01-14.81-32.98-37.57-38.77-82.45-.143-1.191.798-2.071 1.75-1.88 43.49 8.71 87.57 8.73 131.01.06 1.157-.268 2.241.594 2.091 1.649z"/><path d="m74.1 307.664c-32.698 17.463-66.166-14.216-67.39-47.74-6.564-1.069-9.15-9.454-3.92-13.95 3.8-3.28 8.9-8.95 11.6-17.38 1.79-5.57 1.39-11.77-1.11-17.46-.08-.17-.16-.35-.23-.54-34.621-79.393 3.168-149.099 74.26-133.828 3.722.8 5.721 4.862 4.153 8.332-.521 1.153-1.036 2.34-1.537 3.551-1.093 2.642-3.879 4.2-6.68 3.629-59.968-12.231-83.355 48.1-55.576 111.816 7.8 13.6 22.27 7.2 26.55 4.9 3.89-2.1 8.74-.64 10.83 3.25 1.51 2.79 1.18 6.07-.56 8.48 32.204 15.356 45.597 67.719 9.61 86.94z"/><path d="m473.31 259.924c-1.227 33.594-34.722 65.187-67.39 47.74-35.916-19.183-22.665-71.551 9.61-86.94-1.74-2.41-2.07-5.69-.56-8.48 2.09-3.89 6.94-5.35 10.83-3.25 4.28 2.3 18.75 8.7 26.55-4.9 27.796-63.754 4.351-124.026-55.549-111.823-2.811.573-5.611-.971-6.707-3.622-.501-1.21-1.016-2.4-1.539-3.557-1.583-3.502.483-7.542 4.24-8.346 70.98-15.199 108.805 54.434 74.175 133.848-.07.19-.15.37-.23.54-2.5 5.69-2.9 11.89-1.11 17.46 2.7 8.43 7.8 14.1 11.6 17.38 5.225 4.492 2.648 12.88-3.92 13.95z"/></g></svg>