<svg xmlns="http://www.w3.org/2000/svg" xml:space="preserve" width="1385" height="1581" style="shape-rendering:geometricPrecision;text-rendering:geometricPrecision;image-rendering:optimizeQuality;fill-rule:evenodd;clip-rule:evenodd" viewBox="0 0 883.35 1008.33"><path d="M519.31 409.65c0-51.1-41.64-129.4-77.63-129.4-35.99 0-77.64 78.3-77.64 129.4 0 33.69 21.7 62.15 51.76 72.87v-72.87c0-14.31 11.57-25.88 25.87-25.88 14.31 0 25.88 11.57 25.88 25.88v72.87c30.06-10.72 51.76-39.18 51.76-72.87zm131.13 288.12h-53.49c-14.25 0-25.88-11.6-25.88-25.88v-68.78c58.18-38.77 95.89-102.17 102.51-171.65 30.63-10.39 52.77-39.45 52.77-73.57v-51.76c0-33.74-21.63-62.52-51.76-73.21C674.59 104.28 570.31 0 441.68 0 313.04 0 208.76 104.28 208.76 232.92 178.63 243.61 157 272.39 157 306.13v51.76c0 34.12 22.14 63.18 52.77 73.57 6.62 69.48 44.33 132.89 102.51 171.66v68.78c0 14.28-11.63 25.88-25.88 25.88l-53.48-.01C104.48 697.77 0 802.25 0 930.69v51.76c0 14.31 11.58 25.88 25.88 25.88h129.4v-77.64c0-14.31 11.57-25.88 25.88-25.88 14.3 0 25.88 11.58 25.88 25.88v77.64H415.8v-471.9c-59.01-12.02-103.52-64.3-103.52-126.78 0-62.2 50.39-181.16 129.4-181.16 79 0 129.4 118.96 129.4 181.16 0 62.48-44.52 114.75-103.52 126.78v471.9h208.76v-77.64c0-14.31 11.58-25.88 25.88-25.88 14.3 0 25.88 11.58 25.88 25.88v77.64h129.4c14.3 0 25.87-11.58 25.87-25.88v-51.76c0-128.43-104.47-232.92-232.91-232.92z" style="fill:#000;fill-rule:nonzero"/></svg>