<svg height="512" viewBox="0 0 64 64" width="512" xmlns="http://www.w3.org/2000/svg"><g id="Layer_5" data-name="Layer 5"><path d="m63 12-24 11-2.663-1.9a30.875 30.875 0 0 0 -9.462-4.562 7.529 7.529 0 0 1 -3.254-1.915 2.121 2.121 0 0 0 -3.621 1.498 5.641 5.641 0 0 0 1.127 3.379 11.134 11.134 0 0 0 4.773 3.659l1.3.521a1.272 1.272 0 0 1 -.332 2.446l-7.868.874h-13a2 2 0 0 0 0 4h11.884a1.116 1.116 0 0 1 .256 2.2l-14.808 3.487a1.728 1.728 0 0 0 -1.332 1.682 2.632 2.632 0 0 0 3.354 2.531l12.911-3.69a5.47 5.47 0 0 1 1.5-.21 1.236 1.236 0 0 1 1.235 1.236 1.239 1.239 0 0 1 -.683 1.106l-12.292 6.146a1.854 1.854 0 0 0 .829 3.512 4.552 4.552 0 0 0 2.155-.543l11.336-6.105a2.942 2.942 0 0 1 1.395-.352 1.259 1.259 0 0 1 .612 2.36l-7.381 4.1a1.889 1.889 0 0 0 .918 3.54 4.014 4.014 0 0 0 2.064-.572l5.3-3.181a54.523 54.523 0 0 1 7.8-3.869 43.2 43.2 0 0 0 10.474-6.028l1.228-2.764a5.488 5.488 0 0 0 -.671-4.657l-.916-1.374 1.665-1.11.916 1.375a7.452 7.452 0 0 1 .869 6.488l-.558 1.258 16.94-3.566zm-35 21h-2v-2h2zm7-5h2v2h-2zm1 10a2 2 0 1 1 2-2 2 2 0 0 1 -2 2zm12-11h-2v-2h2zm5 3a2 2 0 1 1 2-2 2 2 0 0 1 -2 2zm7-2h-2v-2h2z"/></g></svg>